<svg width="157" height="46" viewBox="0 0 157 46" fill="none" xmlns="http://www.w3.org/2000/svg"><path d="M38.8735 23.3091C38.8735 21.9766 38.7539 20.6953 38.5318 19.4653H20.8335V26.7428H30.9468C30.5027 29.0832 29.1702 31.0649 27.1714 32.3974V37.1295H33.2702C36.8235 33.8495 38.8735 29.032 38.8735 23.3091Z" fill="#4285F4"></path><path d="M20.8335 41.6734C25.9072 41.6734 30.161 39.9992 33.2701 37.1292L27.1714 32.3972C25.4972 33.5247 23.3618 34.208 20.8335 34.208C15.9476 34.208 11.7964 30.9109 10.3101 26.4692H4.05762V31.3209C7.1497 37.4538 13.4876 41.6734 20.8335 41.6734Z" fill="#34A853"></path><path d="M10.3103 26.4525C9.93449 25.325 9.71241 24.1291 9.71241 22.882C9.71241 21.635 9.93449 20.4391 10.3103 19.3116V14.46H4.05783C2.77658 16.9883 2.04199 19.8412 2.04199 22.882C2.04199 25.9229 2.77658 28.7758 4.05783 31.3041L8.92658 27.5116L10.3103 26.4525Z" fill="#FBBC05"></path><path d="M20.8335 11.5728C23.601 11.5728 26.0609 12.5295 28.0255 14.3745L33.4068 8.99325C30.1439 5.95242 25.9072 4.09033 20.8335 4.09033C13.4876 4.09033 7.1497 8.30992 4.05762 14.4599L10.3101 19.3116C11.7964 14.8699 15.9476 11.5728 20.8335 11.5728Z" fill="#EA4335"></path><text x="100" y="20" font-size="20" text-anchor="middle" class="font-medium" fill="white">4.7 / 5</text><path d="M125.382 28.3089C125.682 27.3876 126.985 27.3876 127.285 28.3089L128.354 31.6007C128.488 32.0127 128.872 32.2917 129.305 32.2917H132.766C133.735 32.2917 134.138 33.5313 133.354 34.1007L130.554 36.1351C130.204 36.3898 130.057 36.8411 130.191 37.2532L131.26 40.545C131.56 41.4663 130.505 42.2324 129.721 41.663L126.921 39.6285C126.571 39.3739 126.096 39.3739 125.746 39.6285L122.946 41.663C122.162 42.2324 121.107 41.4663 121.407 40.545L122.476 37.2532C122.61 36.8411 122.463 36.3898 122.113 36.1351L119.313 34.1007C118.529 33.5313 118.932 32.2917 119.901 32.2917H123.362C123.795 32.2917 124.179 32.0127 124.313 31.6007L125.382 28.3089Z" fill="#EE9F05"></path><path d="M145.382 28.3089C145.682 27.3876 146.985 27.3876 147.285 28.3089L148.354 31.6007C148.488 32.0127 148.872 32.2917 149.305 32.2917H152.766C153.735 32.2917 154.138 33.5313 153.354 34.1007L150.554 36.1351C150.204 36.3898 150.057 36.8411 150.191 37.2532L151.26 40.545C151.56 41.4663 150.505 42.2324 149.721 41.663L146.921 39.6285C146.571 39.3739 146.096 39.3739 145.746 39.6285L142.946 41.663C142.162 42.2324 141.107 41.4663 141.407 40.545L142.476 37.2532C142.61 36.8411 142.463 36.3898 142.113 36.1351L139.313 34.1007C138.529 33.5313 138.932 32.2917 139.901 32.2917H143.362C143.795 32.2917 144.179 32.0127 144.313 31.6007L145.382 28.3089Z" fill="#686868"></path><path d="M105.382 28.3089C105.682 27.3876 106.985 27.3876 107.285 28.3089L108.354 31.6007C108.488 32.0127 108.872 32.2917 109.305 32.2917H112.766C113.735 32.2917 114.138 33.5313 113.354 34.1007L110.554 36.1351C110.204 36.3898 110.057 36.8411 110.191 37.2532L111.26 40.545C111.56 41.4663 110.505 42.2324 109.721 41.663L106.921 39.6285C106.571 39.3739 106.096 39.3739 105.746 39.6285L102.946 41.663C102.162 42.2324 101.107 41.4663 101.407 40.545L102.476 37.2532C102.61 36.8411 102.463 36.3898 102.113 36.1351L99.3128 34.1007C98.5291 33.5313 98.9319 32.2917 99.9006 32.2917H103.362C103.795 32.2917 104.179 32.0127 104.313 31.6007L105.382 28.3089Z" fill="#EE9F05"></path><path d="M85.3824 28.3089C85.6818 27.3876 86.9852 27.3876 87.2846 28.3089L88.3541 31.6007C88.488 32.0127 88.872 32.2917 89.3052 32.2917H92.7664C93.7351 32.2917 94.1379 33.5313 93.3542 34.1007L90.554 36.1351C90.2035 36.3898 90.0568 36.8411 90.1907 37.2532L91.2603 40.545C91.5596 41.4663 90.5052 42.2324 89.7215 41.663L86.9213 39.6285C86.5708 39.3739 86.0962 39.3739 85.7457 39.6285L82.9455 41.663C82.1618 42.2324 81.1073 41.4663 81.4067 40.545L82.4763 37.2532C82.6101 36.8411 82.4635 36.3898 82.113 36.1351L79.3128 34.1007C78.5291 33.5313 78.9319 32.2917 79.9006 32.2917H83.3618C83.795 32.2917 84.179 32.0127 84.3129 31.6007L85.3824 28.3089Z" fill="#EE9F05"></path><path d="M65.3824 28.3089C65.6818 27.3876 66.9852 27.3876 67.2846 28.3089L68.3541 31.6007C68.488 32.0127 68.872 32.2917 69.3052 32.2917H72.7664C73.7351 32.2917 74.1379 33.5313 73.3542 34.1007L70.554 36.1351C70.2035 36.3898 70.0568 36.8411 70.1907 37.2532L71.2603 40.545C71.5596 41.4663 70.5052 42.2324 69.7215 41.663L66.9213 39.6285C66.5708 39.3739 66.0962 39.3739 65.7457 39.6285L62.9455 41.663C62.1618 42.2324 61.1073 41.4663 61.4067 40.545L62.4763 37.2532C62.6101 36.8411 62.4635 36.3898 62.113 36.1351L59.3128 34.1007C58.5291 33.5313 58.9319 32.2917 59.9006 32.2917H63.3618C63.795 32.2917 64.179 32.0127 64.3129 31.6007L65.3824 28.3089Z" fill="#EE9F05"></path><path d="M145.395 28.2716C145.693 27.3539 146.99 27.349 147.295 28.2644L148.298 31.2751C148.322 31.346 148.337 31.4194 148.345 31.4938L148.579 33.8818L149.334 37.8818L149.869 39.4891C150.175 40.4055 149.132 41.1795 148.344 40.622L146.919 39.6151C146.569 39.3678 146.101 39.3709 145.754 39.6227L142.946 41.663C142.162 42.2324 141.108 41.4663 141.407 40.545L142.477 37.2532C142.61 36.8411 142.464 36.3898 142.113 36.1351L139.313 34.1007C138.529 33.5313 138.932 32.2917 139.901 32.2917H143.362C143.795 32.2917 144.179 32.0127 144.313 31.6007L145.395 28.2716Z" fill="#EE9F05"></path></svg>