<svg width="38" height="33" viewBox="0 0 34 28" xmlns="http://www.w3.org/2000/svg"><path d="M16.9082 6.28125C15.6868 6.28125 14.5202 6.48177 13.4082 6.88281C12.3053 7.28385 11.3027 7.83529 10.4004 8.53711C10.2454 8.64648 10.0814 8.69661 9.9082 8.6875C9.74414 8.67839 9.59831 8.61003 9.4707 8.48242L6.29883 5.31055C6.13477 5.1556 6.05729 4.97786 6.06641 4.77734C6.07552 4.57682 6.16211 4.4082 6.32617 4.27148C7.75716 3.06836 9.375 2.125 11.1797 1.44141C12.9844 0.757812 14.8939 0.416016 16.9082 0.416016C18.9225 0.416016 20.832 0.757812 22.6367 1.44141C24.4505 2.125 26.0729 3.06836 27.5039 4.27148C27.668 4.4082 27.75 4.57682 27.75 4.77734C27.7591 4.97786 27.6862 5.1556 27.5312 5.31055L24.3594 8.48242C24.2318 8.61003 24.0859 8.68294 23.9219 8.70117C23.7578 8.71029 23.6074 8.66016 23.4707 8.55078C22.5592 7.83984 21.5475 7.28385 20.4355 6.88281C19.3236 6.48177 18.1478 6.28125 16.9082 6.28125ZM0.447266 16.877C0.447266 14.8626 0.789062 12.9531 1.47266 11.1484C2.15625 9.34375 3.10417 7.72135 4.31641 6.28125C4.45312 6.11719 4.62174 6.03516 4.82227 6.03516C5.02279 6.03516 5.20052 6.11263 5.35547 6.26758L8.52734 9.43945C8.65495 9.56706 8.71875 9.71745 8.71875 9.89062C8.72786 10.0547 8.67773 10.2096 8.56836 10.3555C7.85742 11.2578 7.30143 12.265 6.90039 13.377C6.50846 14.4889 6.3125 15.6556 6.3125 16.877C6.3125 18.1074 6.51302 19.2832 6.91406 20.4043C7.32422 21.5254 7.90299 22.5599 8.65039 23.5078C8.74154 23.6263 8.78255 23.7539 8.77344 23.8906C8.77344 24.0273 8.71875 24.1504 8.60938 24.2598L5.35547 27.5137C5.20052 27.6686 5.02279 27.7461 4.82227 27.7461C4.62174 27.7461 4.45312 27.6595 4.31641 27.4863C3.10417 26.0553 2.15625 24.4375 1.47266 22.6328C0.789062 20.819 0.447266 18.9004 0.447266 16.877ZM33.3828 16.877C33.3828 18.9004 33.0365 20.819 32.3438 22.6328C31.6602 24.4375 30.7168 26.0553 29.5137 27.4863C29.3678 27.6595 29.1947 27.7461 28.9941 27.7461C28.7936 27.7461 28.6159 27.6686 28.4609 27.5137L25.207 24.2598C25.1068 24.1504 25.0521 24.0273 25.043 23.8906C25.0339 23.7539 25.0794 23.6263 25.1797 23.5078C25.9271 22.5599 26.5013 21.5254 26.9023 20.4043C27.3125 19.2832 27.5176 18.1074 27.5176 16.877C27.5176 15.6556 27.3171 14.4889 26.916 13.377C26.515 12.265 25.9635 11.2578 25.2617 10.3555C25.1432 10.2096 25.084 10.0547 25.084 9.89062C25.0931 9.71745 25.166 9.56706 25.3027 9.43945L28.4746 6.26758C28.6296 6.11263 28.8073 6.03516 29.0078 6.03516C29.2083 6.03516 29.377 6.11719 29.5137 6.28125C30.7259 7.72135 31.6738 9.34375 32.3574 11.1484C33.041 12.9531 33.3828 14.8626 33.3828 16.877ZM16.9082 23.0293C16.3158 23.0293 15.7188 22.9427 15.1172 22.7695C14.5156 22.5872 13.987 22.3092 13.5312 21.9355C13.0755 21.5527 12.7611 21.0605 12.5879 20.459C12.5332 20.2767 12.5059 20.1309 12.5059 20.0215C12.5059 19.8027 12.5788 19.6296 12.7246 19.502C12.8704 19.3743 13.0436 19.3105 13.2441 19.3105C13.4264 19.3105 13.5768 19.3561 13.6953 19.4473C13.8138 19.5384 13.9141 19.6888 13.9961 19.8984C14.2422 20.5547 14.6113 21.0195 15.1035 21.293C15.6048 21.5573 16.2201 21.6895 16.9492 21.6895C17.4049 21.6895 17.847 21.6302 18.2754 21.5117C18.7129 21.3932 19.0684 21.1927 19.3418 20.9102C19.6243 20.6185 19.7656 20.222 19.7656 19.7207C19.7656 19.1009 19.5286 18.6543 19.0547 18.3809C18.5807 18.1074 18.0384 17.8978 17.4277 17.752L16.1152 17.4375C15.5592 17.3099 15.0215 17.1276 14.502 16.8906C13.9824 16.6445 13.554 16.3118 13.2168 15.8926C12.8887 15.4642 12.7246 14.9082 12.7246 14.2246C12.7246 13.5228 12.9206 12.9258 13.3125 12.4336C13.7044 11.9323 14.2194 11.5495 14.8574 11.2852C15.4954 11.0208 16.179 10.8887 16.9082 10.8887C17.5553 10.8887 18.1979 11.0163 18.8359 11.2715C19.474 11.5267 20.0072 11.8822 20.4355 12.3379C20.8639 12.7845 21.0781 13.2995 21.0781 13.8828C21.0781 14.1198 20.9961 14.2975 20.832 14.416C20.6771 14.5254 20.513 14.5801 20.3398 14.5801C20.1576 14.5801 20.0026 14.5299 19.875 14.4297C19.7474 14.3294 19.6471 14.1745 19.5742 13.9648C19.3919 13.3906 19.0729 12.9577 18.6172 12.666C18.1615 12.3743 17.5918 12.2285 16.9082 12.2285C16.4889 12.2285 16.0742 12.2969 15.6641 12.4336C15.2539 12.5703 14.9167 12.7754 14.6523 13.0488C14.388 13.3223 14.2559 13.6777 14.2559 14.1152C14.2559 14.4889 14.3561 14.7988 14.5566 15.0449C14.7572 15.291 15.0215 15.4915 15.3496 15.6465C15.6868 15.7923 16.056 15.9108 16.457 16.002L17.7695 16.3164C18.3893 16.4622 18.9635 16.6628 19.4922 16.918C20.0299 17.1641 20.4629 17.5013 20.791 17.9297C21.1191 18.3581 21.2832 18.9141 21.2832 19.5977C21.2832 20.3815 21.0781 21.0286 20.668 21.5391C20.2669 22.0404 19.7337 22.4141 19.0684 22.6602C18.403 22.9062 17.6829 23.0293 16.9082 23.0293ZM16.8945 24.6562C16.7669 24.6562 16.6576 24.6107 16.5664 24.5195C16.4844 24.4284 16.4434 24.3236 16.4434 24.2051V9.74023C16.4434 9.62174 16.4844 9.51693 16.5664 9.42578C16.6576 9.33464 16.7669 9.28906 16.8945 9.28906C17.0221 9.28906 17.127 9.33464 17.209 9.42578C17.3001 9.51693 17.3457 9.62174 17.3457 9.74023V24.2051C17.3457 24.3236 17.3001 24.4284 17.209 24.5195C17.127 24.6107 17.0221 24.6562 16.8945 24.6562Z" fill="url(#paint0_linear_3365_13085)"></path><defs><linearGradient id="paint0_linear_3365_13085" x1="17" y1="-2" x2="17" y2="31" gradientUnits="userSpaceOnUse"><stop stop-color="#314CF9"></stop><stop offset="1" stop-color="#7C93F1"></stop></linearGradient></defs></svg>