<svg width="38" height="33" viewBox="0 0 28 29" xmlns="http://www.w3.org/2000/svg"><path d="M0.898438 19.9824C0.898438 18.5788 1.13542 17.3118 1.60938 16.1816C2.09245 15.0514 2.73958 14.1582 3.55078 13.502C4.37109 12.8366 5.29167 12.5039 6.3125 12.5039H8.26758C7.87565 12.9961 7.48372 13.5977 7.0918 14.3086C6.70898 15.0104 6.38997 15.8262 6.13477 16.7559C5.87956 17.6764 5.75195 18.7064 5.75195 19.8457C5.75195 21.3861 6.02083 22.8079 6.55859 24.1113C7.10547 25.4147 7.99414 26.5176 9.22461 27.4199H6.81836C5.68815 27.4199 4.67643 27.0781 3.7832 26.3945C2.88997 25.7201 2.18359 24.8223 1.66406 23.7012C1.15365 22.571 0.898438 21.3314 0.898438 19.9824ZM7.63867 19.873C7.63867 18.8066 7.72982 17.8496 7.91211 17.002C8.10352 16.1543 8.39062 15.3568 8.77344 14.6094C9.16536 13.862 9.65299 13.1009 10.2363 12.3262C11.2663 10.959 12.4056 9.46419 13.6543 7.8418C14.903 6.21029 16.0332 4.41016 17.0449 2.44141C17.3092 1.93099 17.5827 1.52083 17.8652 1.21094C18.1478 0.901042 18.5352 0.746094 19.0273 0.746094C19.5651 0.746094 20.0117 0.923828 20.3672 1.2793C20.7318 1.62565 20.9141 2.11784 20.9141 2.75586C20.9141 3.35742 20.7956 4.00456 20.5586 4.69727C20.3307 5.38997 20.0664 6.08268 19.7656 6.77539C19.4648 7.4681 19.2005 8.12435 18.9727 8.74414C18.7448 9.35482 18.6309 9.88802 18.6309 10.3438C18.6309 10.8542 18.8177 11.2552 19.1914 11.5469C19.5651 11.8385 20.0527 11.9844 20.6543 11.9844H25.4668C25.9225 11.9844 26.3281 12.0938 26.6836 12.3125C27.0391 12.5221 27.3216 12.8092 27.5312 13.1738C27.7409 13.5384 27.8457 13.9395 27.8457 14.377C27.8457 14.7598 27.7819 15.1016 27.6543 15.4023C27.5267 15.7031 27.3581 15.9447 27.1484 16.127C26.9388 16.3184 26.9251 16.4961 27.1074 16.6602C27.2806 16.8242 27.4173 17.0612 27.5176 17.3711C27.6178 17.6719 27.668 17.9818 27.668 18.3008C27.668 18.7474 27.5677 19.1484 27.3672 19.5039C27.1758 19.8594 26.9297 20.1283 26.6289 20.3105C26.3828 20.4473 26.3418 20.625 26.5059 20.8438C26.8249 21.2448 26.9844 21.7552 26.9844 22.375C26.9844 22.9128 26.8294 23.3776 26.5195 23.7695C26.2188 24.1523 25.8587 24.4303 25.4395 24.6035C25.2663 24.6673 25.2389 24.7949 25.3574 24.9863C25.4395 25.1322 25.5078 25.3008 25.5625 25.4922C25.6263 25.6927 25.6582 25.9251 25.6582 26.1895C25.6582 26.8366 25.4395 27.3288 25.002 27.666C24.5736 28.0124 24.0951 28.2539 23.5664 28.3906C23.2018 28.4909 22.696 28.5684 22.0488 28.623C21.4017 28.6868 20.6361 28.7188 19.752 28.7188H17.8926C16.3066 28.7188 14.8802 28.4954 13.6133 28.0488C12.3464 27.6022 11.2663 26.9779 10.373 26.1758C9.48893 25.3737 8.8099 24.4349 8.33594 23.3594C7.87109 22.2839 7.63867 21.1217 7.63867 19.873Z" fill="url(#paint0_linear_3365_13081)"></path><defs><linearGradient id="paint0_linear_3365_13081" x1="14.5" y1="-1" x2="14.5" y2="32" gradientUnits="userSpaceOnUse"><stop stop-color="#314CF9"></stop><stop offset="1" stop-color="#7C93F1"></stop></linearGradient></defs></svg>